<?xml version="1.0" standalone="no"?>
<!DOCTYPE svg PUBLIC "-//W3C//DTD SVG 20010904//EN"
 "http://www.w3.org/TR/2001/REC-SVG-20010904/DTD/svg10.dtd">
<svg version="1.0" xmlns="http://www.w3.org/2000/svg"
 width="460.000000pt" height="434.000000pt" viewBox="0 0 460.000000 434.000000"
 preserveAspectRatio="xMidYMid meet">

<g transform="translate(0.000000,434.000000) scale(0.100000,-0.100000)"
fill="#000000" stroke="none">
<path d="M2599 3829 c-94 -4 -177 -12 -189 -19 -12 -6 -27 -9 -34 -7 -6 3 -43
-2 -81 -10 -39 -7 -90 -16 -115 -20 -25 -3 -79 -16 -120 -30 -41 -14 -91 -29
-110 -33 -108 -26 -127 -34 -162 -65 -21 -19 -44 -35 -51 -35 -18 0 -101 -92
-162 -179 -27 -39 -65 -90 -82 -113 -18 -24 -33 -50 -33 -58 0 -16 -27 -97
-38 -114 -9 -16 -52 -172 -64 -236 -14 -77 -17 -104 -24 -188 -4 -49 -11 -75
-20 -79 -15 -6 -20 -53 -5 -53 11 0 39 -75 39 -105 1 -73 49 -274 89 -375 50
-129 58 -146 85 -186 16 -23 28 -47 28 -52 0 -6 12 -24 26 -42 l26 -31 -16
-82 c-49 -237 -77 -784 -48 -937 6 -36 16 -114 21 -175 5 -60 16 -154 26 -209
14 -82 15 -100 3 -107 -21 -14 -322 -11 -336 3 -7 7 -12 38 -12 70 0 62 -16
82 -45 58 -11 -9 -32 -6 -102 18 -138 47 -199 58 -219 41 -14 -11 -96 -15
-446 -17 l-428 -3 0 -65 0 -65 33 3 c29 3 32 6 31 36 l-2 32 379 0 379 0 0
-105 0 -104 -276 -3 c-151 -2 -283 0 -292 3 -9 4 -37 32 -62 62 -30 38 -53 56
-68 57 -35 0 -38 -26 -6 -59 49 -49 76 -91 70 -106 -4 -12 -25 -15 -96 -15
-89 0 -90 0 -90 -25 l0 -25 105 0 104 0 17 31 c13 27 20 30 45 25 45 -9 587
-8 602 1 6 4 90 13 186 18 181 10 180 10 195 58 5 17 19 18 193 13 236 -6 128
-6 932 0 382 3 705 3 717 0 12 -3 36 -17 53 -32 l30 -25 32 30 32 31 131 0
c72 0 304 3 516 6 327 6 383 4 372 -7 -7 -8 -45 -19 -85 -26 -207 -34 -397
-66 -437 -74 -25 -5 -72 -14 -105 -19 -150 -24 -294 -50 -340 -60 -27 -6 -77
-15 -110 -20 -189 -29 -188 -28 -15 -28 91 0 194 5 230 10 139 19 187 27 230
38 40 9 167 32 340 60 30 5 78 14 105 19 28 6 109 20 180 31 72 11 148 24 170
30 24 5 44 5 49 0 5 -5 10 -49 10 -97 l1 -88 28 -3 27 -3 0 135 c0 130 -1 136
-22 148 -30 17 -617 24 -662 8 -25 -9 -33 -7 -53 12 -21 20 -23 28 -17 74 4
37 1 67 -10 102 -9 27 -21 92 -26 143 -15 160 -31 252 -52 309 -11 30 -28 87
-38 125 -18 74 -87 244 -145 360 -26 50 -35 83 -35 116 0 26 -9 67 -21 93 -19
44 -19 49 -5 72 9 13 21 24 26 24 14 0 187 177 234 240 22 30 43 57 47 60 3 3
9 12 13 20 3 8 22 40 41 70 19 30 49 84 66 120 17 36 35 72 40 80 5 8 11 20
13 25 47 133 48 140 53 325 4 147 2 204 -11 275 -9 50 -21 117 -27 149 -5 33
-16 71 -24 85 -8 14 -21 48 -30 74 -14 44 -58 117 -132 220 -31 43 -105 109
-172 153 -24 16 -62 41 -85 57 -52 35 -86 50 -161 75 -146 47 -264 72 -365 78
-181 10 -220 10 -381 3z m512 -77 c31 -7 111 -29 177 -51 121 -39 202 -84 343
-191 47 -35 126 -139 179 -234 39 -70 86 -210 94 -276 3 -30 11 -73 18 -95 15
-49 15 -296 0 -380 -9 -55 -28 -118 -51 -170 -35 -82 -77 -164 -93 -184 -10
-14 -27 -43 -38 -65 -54 -111 -296 -366 -440 -463 -107 -72 -170 -103 -196
-97 -18 5 -31 -1 -52 -24 -16 -17 -42 -34 -58 -37 -16 -4 -56 -17 -89 -30 -33
-12 -65 -21 -71 -18 -12 4 -173 235 -204 291 -8 15 -26 39 -40 54 -14 14 -38
45 -55 67 -16 22 -51 57 -77 76 -27 19 -48 39 -48 44 0 5 -15 18 -32 28 -31
18 -61 28 -153 52 -22 6 -115 10 -207 9 -91 0 -170 2 -175 5 -16 10 -83 -13
-83 -28 0 -21 -89 -119 -118 -129 -22 -8 -29 -4 -53 25 -15 19 -35 54 -45 79
-17 48 -35 89 -65 155 -24 54 -30 122 -9 115 8 -2 51 -6 94 -8 100 -5 156 15
214 74 41 43 42 45 42 113 0 70 0 70 40 102 29 24 40 40 40 60 0 58 -62 80
-68 24 -2 -17 -11 -36 -20 -42 -19 -16 -74 -17 -122 -3 -19 6 -67 12 -107 15
-39 3 -83 9 -98 15 -14 5 -40 10 -56 10 -18 0 -32 6 -36 16 -10 27 24 275 47
344 12 36 27 81 32 100 5 19 16 49 23 65 7 17 21 50 29 75 9 25 50 90 91 145
40 55 81 110 90 123 9 12 33 31 53 41 20 11 48 31 61 45 13 14 40 29 60 32 20
4 41 10 46 14 6 4 37 13 70 20 33 7 78 19 100 27 53 20 202 52 293 62 40 5 75
11 79 14 10 11 586 1 644 -11z m-1571 -1186 c25 -2 83 -11 130 -20 47 -8 86
-16 88 -16 1 0 2 -29 2 -63 0 -73 -5 -80 -87 -121 -64 -32 -128 -34 -185 -6
-23 11 -47 20 -54 20 -7 0 -15 8 -18 18 -10 34 -18 180 -11 192 5 8 21 10 49
6 22 -4 61 -9 86 -10z m603 -620 c41 -5 60 -13 67 -27 14 -25 46 -24 60 1 6
11 20 20 31 20 27 0 102 -39 113 -58 5 -9 20 -26 32 -39 12 -12 30 -35 40 -51
9 -16 30 -37 46 -47 17 -9 35 -29 41 -44 7 -15 20 -35 30 -46 10 -11 39 -51
64 -90 26 -38 57 -83 70 -98 29 -36 29 -53 1 -61 -36 -9 -445 -7 -470 3 -13 5
-54 19 -92 30 -107 34 -244 109 -306 168 -30 29 -60 53 -67 53 -6 0 -21 13
-31 28 -11 15 -32 34 -47 42 -27 14 -27 17 -23 87 5 81 14 95 72 125 l40 20
19 -26 c23 -31 30 -32 65 -6 15 11 51 23 80 27 29 3 55 10 58 15 3 5 15 3 27
-5 12 -8 48 -17 80 -21z m-446 -268 c15 -23 48 -57 73 -75 25 -18 65 -50 89
-71 25 -20 77 -53 115 -73 39 -20 85 -43 101 -52 17 -9 37 -17 45 -17 8 0 49
-12 90 -26 74 -25 78 -25 339 -22 l263 3 19 -24 c35 -42 25 -67 -63 -165 -46
-50 -113 -121 -150 -158 -38 -37 -68 -71 -68 -77 0 -5 -8 -12 -18 -15 -10 -4
-70 -57 -133 -119 -110 -108 -191 -177 -347 -294 -13 -10 -38 -33 -54 -50 -17
-18 -40 -35 -52 -39 -12 -4 -51 -31 -88 -60 -71 -57 -135 -78 -174 -56 -27 15
-55 170 -74 410 -6 78 -16 156 -22 172 -9 27 -7 151 6 390 7 120 35 372 45
408 5 17 7 32 5 32 -3 0 -2 5 1 10 11 18 23 11 52 -32z m1677 -153 c14 -30 30
-55 35 -55 4 0 14 -32 21 -70 12 -62 11 -79 -4 -148 -31 -139 -36 -166 -46
-289 -5 -67 -15 -134 -20 -149 -6 -15 -9 -32 -7 -38 5 -13 -21 -121 -51 -211
-11 -33 -23 -73 -26 -90 -4 -16 -15 -48 -25 -70 -10 -22 -25 -57 -34 -78 -16
-36 -46 -44 -32 -9 13 35 -48 367 -95 518 -6 17 -10 40 -10 52 0 26 -37 121
-55 142 -7 8 -20 44 -29 80 -9 36 -25 78 -37 93 -31 42 -18 79 54 166 48 56
78 82 132 111 39 20 93 51 120 68 28 17 57 32 66 32 9 0 27 -22 43 -55z m-424
-132 c0 -5 -9 -19 -20 -33 -15 -20 -23 -23 -36 -14 -27 16 -27 29 -2 42 27 13
58 15 58 5z m576 -166 c4 -12 15 -33 25 -47 10 -14 27 -61 38 -106 11 -44 30
-101 41 -126 11 -25 26 -90 35 -144 8 -54 22 -137 31 -184 19 -108 30 -298 16
-312 -5 -5 -70 -11 -143 -14 -74 -2 -168 -5 -209 -7 -87 -2 -86 -3 -52 93 37
103 61 185 82 280 12 52 25 109 30 125 6 17 14 89 20 160 6 72 15 146 20 165
6 19 9 42 8 50 -1 8 4 36 11 63 11 38 16 45 27 36 7 -6 16 -20 20 -32z m-611
-67 c8 -16 15 -37 15 -47 0 -24 23 -87 37 -104 18 -22 44 -90 53 -139 5 -25
15 -70 23 -100 8 -30 27 -109 41 -175 15 -66 31 -139 36 -163 16 -70 13 -139
-7 -146 -9 -4 -286 -6 -615 -5 -445 1 -598 4 -598 13 0 6 17 20 37 31 35 19
136 98 193 151 14 13 58 48 98 78 40 29 128 107 195 172 67 66 142 138 167
160 37 34 191 195 273 285 23 26 34 24 52 -11z m-1903 -761 c51 -17 111 -34
133 -38 l40 -7 0 -64 0 -65 -85 -9 c-47 -4 -114 -9 -150 -10 l-65 -1 -3 104
c-2 77 1 107 10 113 18 11 16 11 120 -23z"/>
<path d="M2036 2731 c-3 -4 -2 -17 1 -29 4 -18 8 -20 19 -11 8 6 14 17 14 24
0 15 -27 28 -34 16z"/>
<path d="M1945 2711 c-6 -21 3 -51 16 -51 11 0 23 46 14 59 -10 17 -23 13 -30
-8z"/>
<path d="M2128 2695 c-15 -34 2 -70 47 -96 32 -19 35 -25 35 -67 0 -58 25
-165 45 -195 31 -49 107 -93 180 -107 114 -20 290 1 395 47 54 24 144 106 171
157 34 64 20 178 -29 222 -23 23 -31 24 -96 19 -39 -3 -168 -12 -286 -20 -118
-8 -236 -20 -262 -27 -41 -10 -50 -9 -65 4 -10 9 -29 18 -42 20 -18 2 -27 12
-33 36 -11 40 -43 44 -60 7z m827 -134 c15 -45 14 -48 -9 -96 -44 -93 -132
-144 -296 -174 -106 -20 -119 -20 -170 -6 -30 8 -65 15 -78 15 -13 0 -42 18
-68 43 -41 39 -45 47 -55 120 -10 65 -9 81 2 92 9 9 61 18 144 25 72 6 177 16
235 22 58 5 135 11 172 12 37 1 70 5 74 9 12 12 32 -13 49 -62z"/>
<path d="M2335 2476 c-34 -51 28 -98 71 -55 21 21 22 27 11 49 -18 36 -61 39
-82 6z"/>
<path d="M1972 2103 c2 -10 11 -16 19 -15 8 2 41 5 74 5 93 3 83 22 -13 25
-76 3 -83 1 -80 -15z"/>
<path d="M1488 2499 c-25 -14 -23 -56 3 -70 30 -16 69 3 69 34 0 41 -34 59
-72 36z"/>
<path d="M1953 1824 c-12 -33 24 -44 143 -44 62 0 115 3 117 8 3 4 1 17 -4 30
-8 21 -13 22 -129 22 -103 0 -122 -2 -127 -16z"/>
<path d="M0 3000 l0 -30 84 0 c55 0 87 -4 93 -12 6 -7 20 -69 33 -138 12 -69
32 -161 42 -205 11 -44 24 -102 28 -130 15 -98 51 -281 64 -330 15 -53 34
-162 41 -233 2 -23 10 -66 19 -95 8 -28 24 -104 35 -167 11 -63 27 -146 36
-185 18 -75 39 -184 55 -280 5 -33 14 -78 21 -100 6 -22 20 -93 32 -158 l20
-117 -72 -71 c-40 -38 -78 -68 -84 -66 -15 5 -27 54 -172 757 -9 41 -22 98
-30 125 -7 28 -23 97 -35 155 -11 58 -27 132 -35 165 -8 33 -26 116 -40 185
-14 69 -30 139 -35 155 -5 17 -16 68 -24 115 -8 47 -24 121 -35 165 -11 44
-25 100 -30 125 -8 34 -9 6 -7 -120 3 -140 7 -178 29 -250 14 -47 33 -134 42
-195 10 -60 21 -114 25 -120 4 -5 10 -23 13 -40 3 -16 15 -77 27 -135 12 -58
26 -123 30 -145 4 -22 15 -69 24 -104 10 -35 26 -107 36 -160 10 -53 28 -136
40 -186 12 -49 30 -133 40 -185 11 -52 24 -115 29 -140 32 -136 39 -176 32
-183 -7 -7 -32 -3 -168 24 -32 6 -54 17 -58 27 -8 18 -32 121 -69 297 -13 61
-33 146 -44 190 -12 44 -23 91 -25 105 -2 14 -5 -34 -6 -107 -1 -131 11 -221
42 -309 16 -44 39 -170 41 -219 1 -28 -1 -30 -41 -33 l-43 -3 0 -45 0 -44 200
0 c156 0 201 3 207 13 4 8 22 22 38 32 17 10 72 59 123 109 82 81 92 94 92
126 0 43 -14 129 -37 220 -8 36 -26 121 -40 190 -29 154 -24 129 -67 345 -20
99 -48 241 -62 315 -14 74 -32 167 -40 205 -19 90 -42 205 -54 275 -5 30 -16
87 -25 125 -8 39 -26 129 -39 200 -26 137 -36 184 -55 251 -15 57 -53 74 -160
74 l-81 0 0 -30z m235 -2375 l50 -8 -40 -8 c-84 -16 -131 -5 -106 25 9 10 19
13 30 7 9 -5 39 -12 66 -16z"/>
</g>
</svg>
